<svg width="32" height="32" viewBox="0 0 200 200" xmlns="http://www.w3.org/2000/svg"><circle cx="100" cy="100" r="99" fill="#fff"/><circle cx="100" cy="100" r="93" fill="none" stroke="#000" stroke-width="1.2"/><path d="M 69 65 L 96 64 L 97 65 L 98 64 L 120 64 L 121 65 L 122 64 L 130 64 L 130 70 L 117 85 L 118 86 L 104 100 L 105 101 L 91 115 L 92 116 L 78 130 L 96 130 L 97 131 L 98 130 L 120 130 L 121 131 L 122 130 L 132 131 L 120 136 L 119 135 L 118 136 L 96 136 L 95 135 L 94 136 L 71 136 L 71 130 L 84 115 L 83 114 L 97 100 L 96 99 L 110 85 L 109 84 L 123 70 L 105 70 L 104 69 L 103 70 L 83 70 L 82 69 L 81 70 L 69 69 Z" fill="#000"/></svg>
